# xmcd
#
# Track frame offsets: 
#        182
#        17710
#        34497
#
# Disc length: 778 seconds
#
# Revision: 0
# Processed by: cddbd v1.4PL0 Copyright (c) Steve Scherf et al.
# Submitted via: ExactAudioCopy v0.90b4
#
DISCID=1f030803
DTITLE=Ochsenknecht - Blue Water
DYEAR=1900
DGENRE=Blues
TTITLE0=Blue water
TTITLE1=A man needs a little love
TTITLE2=Fantasy town
EXTD=
EXTT0=
EXTT1=
EXTT2=
PLAYORDER=
